<?xml version="1.0" encoding="UTF-8" standalone="no"?>
<svg
   xmlns:dc="http://purl.org/dc/elements/1.1/"
   xmlns:cc="http://creativecommons.org/ns#"
   xmlns:rdf="http://www.w3.org/1999/02/22-rdf-syntax-ns#"
   xmlns:svg="http://www.w3.org/2000/svg"
   xmlns="http://www.w3.org/2000/svg"
   viewBox="0 0 226.7717 226.7717"
   id="svg2"
   height="226.7717"
   width="226.7717"
   version="1.1">
  <metadata
     id="metadata40">
    <rdf:RDF>
      <cc:Work
         rdf:about="">
        <dc:format>image/svg+xml</dc:format>
        <dc:type
           rdf:resource="http://purl.org/dc/dcmitype/StillImage" />
      </cc:Work>
    </rdf:RDF>
  </metadata>
  <defs
     id="defs38" />
  <path
     id="path4"
     style="fill:#000c45;fill-rule:evenodd;stroke:#ffffff;stroke-width:2.12599993;stroke-linecap:butt;stroke-linejoin:miter;stroke-dasharray:none"
     d="M 111.4588,7.5796 A 106.2992,106.2992 0 0 1 217.758,113.8788 106.2992,106.2992 0 1 1 111.4588,7.5796 Z" />
  <path
     id="path6"
     style="fill:#00ff00;fill-rule:evenodd"
     d="m 180.3182,138.0708 -138.334,0 c 10.0697,28.4862 37.2324,48.8976 69.167,48.8976 31.9346,0 59.0973,-20.4114 69.167,-48.8976 z" />
  <path
     id="path8"
     style="fill:#ffffff;fill-rule:evenodd"
     d="m 180.4719,89.1731 c 2.7034,7.6478 4.1795,15.8754 4.1795,24.4489 0,8.5734 -1.4761,16.801 -4.1795,24.4488 l -138.334,0 C 39.4345,130.423 37.651,122.0785 37.651,113.505 c 0,-8.5734 1.7835,-16.6841 4.4869,-24.3319 l 138.334,0 z" />
  <path
     id="path10"
     style="fill:#ff0000;fill-rule:evenodd"
     d="m 111.1512,40.2755 c 31.9346,0 59.0973,20.4114 69.167,48.8976 l -138.334,0 C 52.0539,60.6869 79.2166,40.2755 111.1512,40.2755 Z" />
  <path
     id="path12"
     style="fill:#000000;fill-rule:evenodd;stroke:#000000;stroke-width:1.41729999;stroke-linecap:butt;stroke-linejoin:miter;stroke-dasharray:none"
     d="m 111.1513,105.118 a 8.5041,8.5039 0 0 1 8.5041,8.504 8.5041,8.5039 0 1 1 -8.5041,-8.504 z" />
  <path
     id="path14"
     style="fill:none;stroke:#000000;stroke-width:1.41729999;stroke-linecap:butt;stroke-linejoin:miter;stroke-dasharray:none"
     d="m 111.1512,40.2755 0,64.8425" />
  <path
     id="path16"
     style="fill:none;stroke:#000000;stroke-width:1.41729999;stroke-linecap:butt;stroke-linejoin:miter;stroke-dasharray:none"
     d="m 37.8047,113.622 64.8426,0" />
  <path
     id="path18"
     style="fill:none;stroke:#000000;stroke-width:1.41729999;stroke-linecap:butt;stroke-linejoin:miter;stroke-dasharray:none"
     d="m 119.6551,113.622 64.8426,0" />
  <path
     id="path20"
     style="fill:none;stroke:#000000;stroke-width:1.41729999;stroke-linecap:butt;stroke-linejoin:miter;stroke-dasharray:none"
     d="m 111.1512,122.1259 0,64.8425" />
  <path
     id="path22"
     style="fill:none;stroke:#000000;stroke-width:1.41729999;stroke-linecap:butt;stroke-linejoin:miter;stroke-dasharray:none"
     d="M 111.1512,89.1731 A 24.4488,24.4488 0 0 1 135.6,113.622 24.4488,24.4488 0 1 1 111.1512,89.1731 Z" />
  <path
     id="path24"
     style="fill:none;stroke:#000000;stroke-width:1.41729999;stroke-linecap:butt;stroke-linejoin:miter;stroke-dasharray:none"
     d="M 111.1513,73.2283 A 40.3938,40.3937 0 0 1 151.5451,113.622 40.3938,40.3937 0 1 1 111.1513,73.2283 Z" />
  <path
     id="path26"
     style="fill:none;stroke:#000000;stroke-width:1.41729999;stroke-linecap:butt;stroke-linejoin:miter;stroke-dasharray:none"
     d="M 111.1513,56.2204 A 57.4017,57.4016 0 0 1 168.553,113.622 57.4017,57.4016 0 1 1 111.1513,56.2204 Z" />
  <path
     id="path28"
     style="fill:none;stroke:#000000;stroke-width:1.41729999;stroke-linecap:butt;stroke-linejoin:miter;stroke-dasharray:none"
     d="m 111.1512,41.0196 a 72.6024,72.6025 0 0 1 72.6024,72.6025 72.6024,72.6025 0 1 1 -72.6024,-72.6025 z" />
  <path
     id="path30"
     style="fill:none;stroke:#ffffff;stroke-width:2.12599993;stroke-linecap:butt;stroke-linejoin:miter;stroke-dasharray:none"
     d="m 111.1512,39.744 a 73.8779,73.8781 0 0 1 73.878,73.8781 73.8779,73.8781 0 1 1 -73.878,-73.8781 z" />
  <path
     id="path32"
     style="fill:#ffffff;fill-rule:evenodd;stroke:#ffffff;stroke-width:0.21600001;stroke-linecap:butt;stroke-linejoin:miter;stroke-dasharray:none"
     d="m 30.7639,167.0573 3.9656,-3.4301 0.2124,0.2817 c -0.9682,1.3166 -1.4654,2.5306 -1.4937,3.6389 -0.0264,1.1114 0.3255,2.1515 1.0602,3.1264 0.6157,0.817 1.3781,1.3972 2.2895,1.7438 0.9114,0.3467 1.9599,0.3669 3.1513,0.0612 1.191,-0.3059 2.463,-0.9682 3.8092,-1.9827 1.111,-0.8372 1.9435,-1.7412 2.4901,-2.7157 0.5458,-0.9693 0.7675,-1.9757 0.6627,-3.0225 -0.1023,-1.0437 -0.5013,-2.024 -1.194,-2.9433 -0.6016,-0.7983 -1.3013,-1.3725 -2.1066,-1.7265 -0.7996,-0.3531 -1.9833,-0.5138 -3.5489,-0.4792 l -0.0327,-0.4171 c 1.5596,-0.2094 2.9045,-0.0927 4.03,0.3451 1.1278,0.4409 2.1162,1.2243 2.9698,2.357 1.5345,2.0363 1.9686,4.1838 1.297,6.4413 -0.496,1.6789 -1.5056,3.0948 -3.0282,4.2422 -1.2255,0.9236 -2.5625,1.4993 -4.003,1.7257 -1.4423,0.2234 -2.8091,0.0644 -4.1006,-0.4711 -1.2909,-0.5413 -2.3654,-1.3811 -3.226,-2.5231 -0.6693,-0.8883 -1.1149,-1.9302 -1.3322,-3.1201 -0.0582,-0.3542 -0.1275,-0.5881 -0.2092,-0.6963 -0.1213,-0.1609 -0.2876,-0.2592 -0.493,-0.2934 -0.2797,-0.0365 -0.5927,0.0247 -0.9318,0.1735 l -0.2379,-0.3157 z m -10.1141,-19.0694 4.864,-2.1656 0.1701,0.3823 c -0.8778,0.5436 -1.5218,1.0976 -1.9323,1.6621 -0.4123,0.5695 -0.6465,1.2252 -0.7037,1.9633 -0.0608,0.7399 0.0489,1.4246 0.3325,2.062 0.3199,0.7186 0.8044,1.2154 1.4529,1.4907 0.6486,0.2754 1.2517,0.2868 1.8111,0.0379 0.4284,-0.1907 0.7549,-0.5143 0.9733,-0.9678 0.3295,-0.6601 0.5659,-1.9867 0.7126,-3.9821 0.1197,-1.6268 0.2609,-2.7672 0.4269,-3.4139 0.1609,-0.6485 0.4414,-1.2187 0.8361,-1.704 0.3982,-0.4871 0.8745,-0.8559 1.4338,-1.1051 1.0656,-0.4743 2.1668,-0.4684 3.3057,0.0127 1.1406,0.485 1.9995,1.3751 2.5778,2.6743 0.1828,0.4106 0.3212,0.8073 0.4184,1.1965 0.0622,0.2267 0.1335,0.7295 0.217,1.4982 0.08,0.7703 0.161,1.2475 0.2413,1.428 0.0772,0.1735 0.1905,0.2843 0.3387,0.3415 0.1469,0.0533 0.3958,0.0314 0.7437,-0.064 l 0.1702,0.3822 -4.8215,2.1466 -0.1703,-0.3822 c 0.9285,-0.6297 1.5739,-1.2095 1.9411,-1.738 0.3635,-0.5264 0.5748,-1.1763 0.6286,-1.951 0.0517,-0.7696 -0.0876,-1.5305 -0.4201,-2.2774 -0.3846,-0.8638 -0.9154,-1.4461 -1.5957,-1.7454 -0.6791,-0.2957 -1.329,-0.3074 -1.9521,-0.0302 -0.347,0.1546 -0.6512,0.4046 -0.9219,0.7498 -0.2689,0.3487 -0.4619,0.7909 -0.5884,1.3266 -0.0889,0.3621 -0.2001,1.2937 -0.3404,2.7985 -0.1369,1.5028 -0.2949,2.5956 -0.4679,3.2836 -0.1769,0.6892 -0.449,1.2687 -0.8122,1.7486 -0.3684,0.4779 -0.8446,0.8468 -1.4252,1.1053 -1.0088,0.4492 -2.048,0.4494 -3.1224,-0.001 -1.0743,-0.4507 -1.8773,-1.2724 -2.4101,-2.4689 -0.3325,-0.7471 -0.5049,-1.6204 -0.5085,-2.6196 0.0015,-0.4633 -0.0363,-0.7771 -0.1059,-0.9327 -0.0803,-0.1807 -0.1996,-0.3059 -0.3563,-0.3718 -0.1601,-0.0642 -0.4171,-0.0602 -0.7709,0.0123 l -0.17,-0.3822 z m -3.2483,-16.6252 6.0088,-0.9518 -0.5291,-3.3412 c -0.1376,-0.8689 -0.3593,-1.4262 -0.6657,-1.6757 -0.406,-0.3362 -1.0449,-0.4544 -1.921,-0.3627 l -0.0655,-0.4135 5.2933,-0.8385 0.0655,0.4135 c -0.7224,0.2202 -1.1799,0.4026 -1.374,0.5393 -0.2392,0.1752 -0.4106,0.4299 -0.5116,0.7599 -0.1007,0.3297 -0.1026,0.8125 -0.0019,1.448 l 0.5292,3.3412 5.0137,-0.7941 c 0.6737,-0.1067 1.0783,-0.2022 1.2146,-0.2827 0.1356,-0.0842 0.2343,-0.2056 0.2985,-0.3689 0.0606,-0.1626 0.0574,-0.4565 -0.0088,-0.8736 l -0.4086,-2.5796 c -0.1358,-0.8574 -0.2927,-1.4759 -0.4764,-1.8431 -0.1803,-0.3716 -0.4726,-0.7058 -0.8819,-1.0098 -0.5363,-0.3899 -1.3119,-0.7534 -2.3228,-1.0917 l -0.0708,-0.4477 4.0194,0.7054 1.856,11.719 -0.4131,0.0653 -0.0857,-0.5396 c -0.0563,-0.3559 -0.1983,-0.6824 -0.4216,-0.9766 -0.1567,-0.2226 -0.3622,-0.3547 -0.6133,-0.405 -0.2545,-0.0462 -0.7511,-0.0107 -1.4897,0.1063 l -9.8782,1.5645 c -0.9643,0.1528 -1.5426,0.3425 -1.7375,0.5733 -0.2562,0.3153 -0.3342,0.7867 -0.235,1.4145 l 0.0855,0.5395 -0.4171,0.0662 -1.8562,-11.7191 3.3031,-0.6958 0.0695,0.44 c -0.7749,0.2836 -1.2949,0.5426 -1.563,0.7811 -0.2683,0.2388 -0.4539,0.5545 -0.5512,0.9546 -0.0638,0.3159 -0.0375,0.8534 0.0818,1.6072 l 0.6608,4.1719 z m 5.8326,-22.8486 4.4665,0.3907 c 0.9648,0.0844 1.5726,0.0287 1.8266,-0.163 0.3572,-0.2569 0.5611,-0.6746 0.6117,-1.2535 l 0.0516,-0.5908 0.4169,0.0365 -0.5748,6.5702 -0.4169,-0.0366 0.0504,-0.5749 c 0.0567,-0.6488 -0.1153,-1.1306 -0.5118,-1.4452 -0.2223,-0.1711 -0.7713,-0.297 -1.6436,-0.3733 l -9.9094,-0.867 c -0.965,-0.0844 -1.5722,-0.0366 -1.8215,0.148 -0.3578,0.2644 -0.5621,0.6896 -0.6127,1.269 l -0.0504,0.575 -0.421,-0.0367 0.4918,-5.6205 c 0.1199,-1.3704 0.3573,-2.4389 0.7083,-3.2053 0.3513,-0.7707 0.8881,-1.3928 1.6075,-1.8784 0.7192,-0.4855 1.5381,-0.6862 2.4568,-0.6059 1.2509,0.1095 2.2335,0.6117 2.9451,1.5065 0.7114,0.8944 1.0033,2.0947 0.871,3.604 -0.0319,0.3669 -0.0942,0.766 -0.1858,1.1897 -0.0914,0.4237 -0.2092,0.8801 -0.3563,1.3615 z m -0.6446,-0.0566 c 0.1084,-0.395 0.1973,-0.7449 0.263,-1.0506 0.0616,-0.3058 0.1039,-0.5664 0.1233,-0.7865 0.0685,-0.7836 -0.1733,-1.4856 -0.7333,-2.1102 -0.5565,-0.6206 -1.3151,-0.9748 -2.2803,-1.0592 -0.6639,-0.0582 -1.2934,0.023 -1.8845,0.2435 -0.5952,0.224 -1.0534,0.5693 -1.3787,1.0425 -0.3291,0.4729 -0.5176,1.0284 -0.5731,1.6615 -0.0334,0.382 -0.0073,0.8821 0.0825,1.5007 l 6.3811,0.5583 z m -3.0015,-22.0137 5.7168,2.0807 1.157,-3.1788 c 0.301,-0.8268 0.3771,-1.4216 0.2304,-1.7884 -0.1924,-0.4908 -0.6937,-0.9039 -1.5043,-1.2488 l 0.1431,-0.3933 5.036,1.8331 -0.1433,0.3933 c -0.7386,-0.1576 -1.2271,-0.2201 -1.4631,-0.1943 -0.294,0.0372 -0.5676,0.1768 -0.8155,0.4164 -0.2481,0.2396 -0.4839,0.661 -0.7039,1.2656 l -1.157,3.1788 4.7701,1.7363 c 0.6407,0.2332 1.0411,0.3459 1.1994,0.3414 0.1593,-0.0078 0.3045,-0.0663 0.4399,-0.1779 0.1318,-0.1129 0.2713,-0.3714 0.4159,-0.7683 l 0.8931,-2.4543 c 0.297,-0.8157 0.4596,-1.4327 0.4768,-1.8428 0.0224,-0.4126 -0.0712,-0.8466 -0.2817,-1.3109 -0.2799,-0.601 -0.7821,-1.2949 -1.5022,-2.0809 l 0.155,-0.4258 3.1735,2.5654 -4.0581,11.1495 -0.3933,-0.1431 0.1869,-0.5134 c 0.1233,-0.3387 0.1573,-0.6933 0.1048,-1.0587 -0.0294,-0.2707 -0.1448,-0.4858 -0.3402,-0.6516 -0.2,-0.1635 -0.6516,-0.3734 -1.3545,-0.6291 l -9.3981,-3.4207 c -0.9176,-0.334 -1.5152,-0.4484 -1.7975,-0.341 -0.3769,0.1515 -0.6739,0.5261 -0.8912,1.1231 l -0.1869,0.5134 -0.3969,-0.1443 4.0581,-11.1495 3.2262,0.9926 -0.1525,0.4188 c -0.8153,-0.1277 -1.3957,-0.1535 -1.7458,-0.0748 -0.3504,0.0789 -0.6657,0.2649 -0.9448,0.5676 -0.209,0.2454 -0.4465,0.7282 -0.7076,1.4455 l -1.4446,3.9692 z m 22.6919,-22.6139 0.2681,-0.2757 2.8444,3.331 -6.3163,10.1082 -0.3548,-0.2218 0.308,-0.4928 c 0.3448,-0.5521 0.4105,-1.0596 0.2001,-1.5198 -0.1227,-0.2641 -0.5581,-0.6276 -1.3007,-1.0917 l -8.4259,-5.265 c -0.8149,-0.5094 -1.3798,-0.7388 -1.6963,-0.6854 -0.4388,0.0731 -0.8122,0.3563 -1.1202,0.8493 l -0.3079,0.4928 -0.3582,-0.2239 3.6941,-5.9117 0.3582,0.2239 c -0.44,0.6892 -0.6815,1.2143 -0.7211,1.5779 -0.04,0.3637 0.0119,0.6609 0.1552,0.8922 0.1401,0.2292 0.6002,0.5898 1.3757,1.0745 l 8.2023,5.1253 c 0.5323,0.3328 0.9301,0.5079 1.1942,0.5313 0.1819,0.0087 0.3544,-0.048 0.5208,-0.1681 0.1631,-0.1219 0.5079,-0.6008 1.0337,-1.4421 l 0.5955,-0.9531 c 0.6263,-1.0022 0.9934,-1.7507 1.0982,-2.2474 0.1046,-0.4966 0.0717,-1.0287 -0.0935,-1.5981 -0.1671,-0.5659 -0.5525,-1.2728 -1.1536,-2.1098 z m 23.6686,-22.0696 0.357,-0.1429 1.2437,4.1999 -9.8818,6.6654 -0.2339,-0.347 0.4818,-0.3248 c 0.5398,-0.3642 0.8062,-0.8011 0.8011,-1.3073 -0.0047,-0.291 -0.2547,-0.8002 -0.7444,-1.5262 l -5.5558,-8.237 c -0.5374,-0.7968 -0.9599,-1.236 -1.2711,-1.3159 -0.4305,-0.1119 -0.8868,-0.0049 -1.3685,0.3201 l -0.482,0.3251 -0.2362,-0.3504 5.7793,-3.8982 0.2362,0.3504 c -0.6822,0.4507 -1.1163,0.8323 -1.3005,1.1482 -0.1843,0.316 -0.2581,0.6087 -0.2211,0.8783 0.0347,0.2662 0.3083,0.7828 0.8198,1.5411 l 5.4085,8.0184 c 0.351,0.5204 0.6429,0.8423 0.8749,0.9711 0.1626,0.0819 0.3431,0.1004 0.544,0.0581 0.1988,-0.0449 0.7086,-0.3421 1.5309,-0.8968 l 0.9316,-0.6284 c 0.9799,-0.661 1.6198,-1.1955 1.9175,-1.6064 0.2976,-0.4114 0.4838,-0.911 0.5644,-1.4982 0.0776,-0.5849 0.0132,-1.3874 -0.1954,-2.3966 z m 9.2134,-17.7275 c 1.8539,-0.749 3.743,-0.6971 5.6702,0.1626 1.927,0.8593 3.3144,2.3386 4.165,4.4439 0.8768,2.17 0.9178,4.2473 0.1267,6.2302 -0.7898,1.9868 -2.157,3.371 -4.1008,4.1563 -1.9616,0.7926 -3.8975,0.7594 -5.7973,-0.0944 -1.9011,-0.8576 -3.2995,-2.3949 -4.1952,-4.6116 -0.9159,-2.2672 -0.8895,-4.4259 0.0725,-6.4822 0.8414,-1.786 2.1942,-3.0514 4.0589,-3.8048 z m 0.1116,0.8453 c -1.2792,0.5168 -2.1113,1.4046 -2.5006,2.6653 -0.4832,1.566 -0.2678,3.4851 0.651,5.7593 0.942,2.3318 2.166,3.9229 3.6675,4.7745 1.1515,0.6465 2.3542,0.7165 3.6117,0.2084 1.34,-0.5415 2.2346,-1.5131 2.6853,-2.9113 0.4509,-1.3983 0.2228,-3.2245 -0.6873,-5.4772 -0.9856,-2.4394 -2.203,-4.0666 -3.6508,-4.8775 -1.1586,-0.6435 -2.4151,-0.6917 -3.7768,-0.1415 z m 0.2111,-4.9083 c 0.3125,-0.1263 0.627,-0.1237 0.9412,0.0125 0.3091,0.1342 0.5294,0.3587 0.6571,0.6748 0.1278,0.3162 0.1253,0.6306 -0.0053,0.9384 -0.1328,0.3128 -0.3571,0.533 -0.6699,0.6593 -0.3161,0.1278 -0.6305,0.1252 -0.9469,-0.0062 -0.3112,-0.129 -0.5351,-0.3522 -0.6629,-0.6684 -0.1277,-0.3161 -0.1216,-0.632 0.0111,-0.9448 0.135,-0.3176 0.3593,-0.5378 0.6756,-0.6656 z m -3.7185,1.5024 c 0.3233,-0.1307 0.6414,-0.1297 0.952,0.0081 0.3127,0.1327 0.533,0.3572 0.6605,0.6733 0.1278,0.3164 0.1218,0.6323 -0.0123,0.9414 -0.1365,0.3142 -0.3572,0.533 -0.6663,0.6578 -0.3161,0.1277 -0.6308,0.1252 -0.9435,-0.0075 -0.3149,-0.1277 -0.5351,-0.3522 -0.6627,-0.6684 -0.1277,-0.3161 -0.1254,-0.6305 0.0039,-0.942 0.1313,-0.3161 0.3559,-0.5364 0.6684,-0.6627 z m 36.4045,-4.4071 0.0589,0.4181 c -0.5277,0.1718 -0.9102,0.4016 -1.1557,0.6867 -0.3436,0.424 -0.6174,1.0377 -0.8181,1.8369 l -3.4949,13.7213 -0.4146,0.0583 -7.5568,-12.3403 c -0.3905,-0.634 -0.6516,-1.0158 -0.7953,-1.1483 -0.2173,-0.2081 -0.4726,-0.3563 -0.7675,-0.4479 -0.2913,-0.0959 -0.671,-0.1248 -1.1406,-0.0978 l -0.0589,-0.4184 6.2279,-0.8753 0.0589,0.4184 c -0.6969,0.1644 -1.1364,0.3515 -1.3237,0.55 -0.1828,0.2018 -0.2591,0.4392 -0.2213,0.708 0.0527,0.3761 0.3077,0.935 0.7645,1.6808 l 5.1356,8.3919 2.3558,-9.3274 c 0.2306,-0.9207 0.3223,-1.5479 0.2748,-1.8857 -0.0308,-0.2188 -0.1673,-0.4107 -0.4141,-0.5795 -0.2462,-0.165 -0.6308,-0.2558 -1.1599,-0.2635 -0.0394,-0.0023 -0.1025,-0.0053 -0.1969,-0.0074 l -0.0589,-0.4184 4.7008,-0.6605 z m 14.8177,1.9461 -0.8466,6.0246 3.3499,0.4707 c 0.8712,0.1225 1.4688,0.0733 1.7971,-0.1465 0.4401,-0.2902 0.7401,-0.8663 0.9086,-1.731 l 0.4146,0.0583 -0.746,5.3069 -0.4143,-0.0583 c 4e-4,-0.7551 -0.04,-1.246 -0.1142,-1.4716 -0.0976,-0.28 -0.2911,-0.5183 -0.577,-0.7111 -0.286,-0.1929 -0.7471,-0.3359 -1.3842,-0.4254 l -3.3499,-0.4707 -0.7065,5.0266 c -0.095,0.6755 -0.1218,1.0903 -0.0848,1.2444 0.0408,0.1543 0.1282,0.284 0.2655,0.3933 0.1378,0.1054 0.4197,0.1881 0.8381,0.247 l 2.5862,0.3634 c 0.8598,0.1209 1.4971,0.1515 1.9019,0.0833 0.408,-0.064 0.8132,-0.2458 1.2235,-0.5481 0.5296,-0.399 1.1041,-1.0345 1.7231,-1.9021 l 0.4488,0.0631 -1.8496,3.6374 -11.7496,-1.6513 0.0582,-0.4143 0.5411,0.0761 c 0.3569,0.0502 0.7107,0.0098 1.0572,-0.1176 0.2587,-0.085 0.4452,-0.2428 0.5668,-0.4683 0.1184,-0.2298 0.2298,-0.715 0.3338,-1.4557 l 1.3919,-9.9039 c 0.1358,-0.9669 0.1235,-1.5753 -0.0402,-1.8292 -0.2266,-0.3372 -0.6546,-0.5498 -1.2839,-0.6382 l -0.5411,-0.0761 0.0587,-0.4182 11.7497,1.6513 -0.3002,3.362 -0.4413,-0.0619 c -0.0447,-0.824 -0.1402,-1.3972 -0.2898,-1.7233 -0.1499,-0.3263 -0.3976,-0.5961 -0.7518,-0.8062 -0.2834,-0.1535 -0.8051,-0.2853 -1.5609,-0.3916 l -4.1828,-0.5878 z m 5.5909,-5.1151 -3.8602,3.4096 -0.3837,-0.054 1.7265,-3.7094 2.5174,0.3538 z m 22.5231,11.6555 -1.8211,5.003 -0.3931,-0.143 c 0.2185,-1.009 0.2674,-1.8571 0.1467,-2.5444 -0.1234,-0.6922 -0.4323,-1.3162 -0.9236,-1.8702 -0.4898,-0.5577 -1.0587,-0.9546 -1.7142,-1.1931 -0.7392,-0.269 -1.4331,-0.2658 -2.0817,0.0095 -0.6487,0.2751 -1.0758,0.7012 -1.2852,1.2765 -0.1603,0.4405 -0.1545,0.9003 0.02,1.3723 0.246,0.6956 1.036,1.7873 2.3694,3.2789 1.0872,1.2163 1.8094,2.1098 2.1592,2.6785 0.3548,0.5664 0.5699,1.164 0.645,1.7852 0.0738,0.6248 0.008,1.2237 -0.2011,1.799 -0.3989,1.096 -1.1683,1.8841 -2.3054,2.369 -1.1413,0.4837 -2.3782,0.483 -3.7143,-0.0032 -0.4225,-0.1537 -0.8039,-0.3297 -1.1515,-0.5304 -0.2062,-0.1125 -0.6176,-0.4105 -1.2284,-0.8844 -0.6097,-0.4777 -1.0094,-0.7509 -1.195,-0.8185 -0.1784,-0.0649 -0.3367,-0.0606 -0.4809,0.0066 -0.1403,0.0684 -0.2976,0.2627 -0.4705,0.5793 l -0.3931,-0.1431 1.805,-4.9595 0.3933,0.1431 c -0.192,1.1053 -0.2232,1.9723 -0.0982,2.6035 0.1263,0.6274 0.4469,1.2307 0.9669,1.8075 0.5177,0.5719 1.1616,1 1.9299,1.2798 0.8885,0.3234 1.6762,0.3459 2.3641,0.0644 0.6844,-0.2827 1.1445,-0.7421 1.3777,-1.3831 0.1299,-0.3568 0.1613,-0.7494 0.101,-1.1838 -0.064,-0.4358 -0.2479,-0.8818 -0.5456,-1.3449 -0.1985,-0.3155 -0.7915,-1.0425 -1.7762,-2.1889 -0.9863,-1.1425 -1.6625,-2.0152 -2.0371,-2.6177 -0.3732,-0.6059 -0.6008,-1.2042 -0.6937,-1.7988 -0.0881,-0.597 -0.0226,-1.1957 0.1949,-1.7931 0.3776,-1.0376 1.0994,-1.7854 2.1698,-2.2452 1.0704,-0.4596 2.2193,-0.4664 3.45,-0.0185 0.7684,0.2796 1.5165,0.7624 2.2378,1.4537 0.3321,0.323 0.5843,0.5137 0.7443,0.5719 0.1859,0.0676 0.3587,0.0689 0.515,0.0019 0.1575,-0.0703 0.3331,-0.258 0.5266,-0.5629 l 0.3933,0.1431 z m 21.4984,13.8805 -16.5817,6.0482 5.1706,3.6206 c 0.7937,0.5557 1.5254,0.8079 2.19,0.7575 0.6697,-0.0515 1.5386,-0.4884 2.6078,-1.3196 l 0.2702,0.2693 -2.9318,2.9239 -10.2685,-7.1903 0.2398,-0.3427 16.1526,-5.8475 -4.0344,-2.8248 c -0.6697,-0.469 -1.2063,-0.736 -1.6079,-0.8045 -0.404,-0.065 -0.7815,-0.0123 -1.1334,0.1527 -0.3523,0.1649 -0.8551,0.5791 -1.5141,1.2434 l -0.3523,-0.2466 2.4672,-2.9698 9.3259,6.5302 z m 18.2679,21.9878 -5.0437,3.402 1.8917,2.8046 c 0.492,0.7292 0.9284,1.1406 1.3113,1.2373 0.5103,0.1329 1.1391,-0.0297 1.8945,-0.483 l 0.2341,0.347 -4.4429,2.997 -0.2341,-0.3472 c 0.5615,-0.5049 0.8993,-0.8634 1.0173,-1.0696 0.1426,-0.2598 0.1905,-0.563 0.1424,-0.9046 -0.048,-0.3414 -0.2504,-0.7798 -0.6101,-1.3132 l -1.8917,-2.8046 -4.2084,2.8386 c -0.5653,0.3814 -0.8917,0.6391 -0.9814,0.7696 -0.0873,0.1337 -0.1252,0.2853 -0.1146,0.4605 0.0139,0.173 0.141,0.4377 0.3772,0.7881 l 1.4605,2.1651 c 0.4854,0.7196 0.8891,1.2139 1.2106,1.469 0.3206,0.2607 0.7268,0.4401 1.226,0.5426 0.651,0.1267 1.5076,0.1284 2.5665,0.0076 l 0.2536,0.3759 -3.9409,1.0594 -6.6348,-9.8365 0.3468,-0.2341 0.3055,0.4531 c 0.2015,0.2987 0.4683,0.5347 0.7949,0.7071 0.2362,0.1352 0.4783,0.1681 0.7273,0.1078 0.25,-0.0659 0.685,-0.3079 1.3051,-0.7261 l 8.2914,-5.5926 c 0.8096,-0.5459 1.2535,-0.9624 1.3325,-1.2539 0.0989,-0.3939 -0.0295,-0.8544 -0.385,-1.3812 l -0.3055,-0.4529 0.3502,-0.2362 6.635,9.8365 -2.6996,2.0265 -0.2492,-0.3693 c 0.5825,-0.5846 0.9446,-1.0389 1.0868,-1.3685 0.1422,-0.3297 0.1769,-0.6943 0.0961,-1.098 -0.0757,-0.3134 -0.3267,-0.7892 -0.7534,-1.4221 l -2.362,-3.5017 z m 14.4622,30.5927 -4.5279,1.7977 -0.1154,-0.3782 c 1.0383,-0.7388 1.7573,-1.5016 2.1608,-2.2895 0.5774,-1.1327 0.6554,-2.3883 0.2351,-3.7632 -0.5731,-1.8751 -1.7505,-3.0752 -3.5308,-3.5965 -1.5029,-0.436 -3.1171,-0.3882 -4.8477,0.1408 -1.4044,0.4294 -2.6039,1.0919 -3.5946,1.9863 -0.9934,0.8995 -1.6244,1.8702 -1.8934,2.9128 -0.2723,1.0438 -0.2666,2.0307 0.0166,2.957 0.1667,0.5447 0.3969,1.0458 0.689,1.5114 0.2926,0.4658 0.6446,0.8891 1.0554,1.2781 l 4.2579,-1.3017 c 0.7373,-0.2256 1.2022,-0.4286 1.398,-0.6098 0.192,-0.1802 0.3128,-0.4077 0.3589,-0.6811 0.0508,-0.2709 -0.0166,-0.7042 -0.1979,-1.2969 l 0.4114,-0.1258 1.7424,5.6993 -0.4114,0.1259 -0.0827,-0.2707 c -0.1732,-0.567 -0.48,-0.8944 -0.9226,-0.9901 -0.3111,-0.0631 -0.8626,0.0287 -1.6481,0.2688 l -4.5062,1.3776 c -0.7031,-0.6967 -1.2846,-1.4187 -1.7427,-2.1617 -0.4592,-0.7471 -0.8385,-1.6157 -1.1421,-2.609 -0.8691,-2.8422 -0.6178,-5.2814 0.7532,-7.3174 1.0326,-1.5269 2.4386,-2.5606 4.2284,-3.1078 1.2933,-0.3954 2.6299,-0.4637 4.0098,-0.2049 1.6373,0.3057 3.0336,0.9892 4.1863,2.0428 0.9597,0.8857 1.6606,2.0654 2.1092,3.5328 0.1643,0.5374 0.2719,1.0351 0.3178,1.5033 0.0483,0.4634 0.0451,1.1412 -0.005,2.0358 -0.0287,0.4505 -0.0187,0.7475 0.0232,0.8844 0.0419,0.1373 0.1411,0.2366 0.2966,0.2945 0.1554,0.0578 0.4218,0.041 0.7955,-0.0487 l 0.1235,0.4037 z m 2.0533,22.6885 0.0938,5.3698 -0.4223,0.008 -0.005,-0.2945 c -0.003,-0.1977 -0.0935,-0.4828 -0.2744,-0.8595 -0.181,-0.3727 -0.4348,-0.7133 -0.7656,-1.0175 -0.3312,-0.3043 -0.8687,-0.6786 -1.6126,-1.1189 l -5.9074,-3.61 -3.8627,0.0674 c -0.9455,0.0166 -1.5327,0.1314 -1.7653,0.3489 -0.3125,0.2921 -0.4636,0.7481 -0.4528,1.3683 l 0.009,0.4996 -0.4184,0.007 -0.1139,-6.5363 0.4184,-0.007 0.009,0.5425 c 0.0115,0.6508 0.2173,1.1123 0.6172,1.3766 0.243,0.1624 0.7985,0.2343 1.6587,0.2192 l 3.6458,-0.0636 6.3733,-4.3359 c 0.7467,-0.509 1.2135,-0.8583 1.4002,-1.0396 0.1869,-0.1818 0.4088,-0.5536 0.6627,-1.1164 0.0748,-0.1524 0.1058,-0.3737 0.1007,-0.6603 l 0.4225,-0.008 0.1148,6.5825 -0.4222,0.008 -0.006,-0.341 c -0.006,-0.3566 -0.0931,-0.6806 -0.2651,-0.9759 -0.1718,-0.2993 -0.4263,-0.4422 -0.7594,-0.4364 -0.2713,0.005 -0.7594,0.2421 -1.4601,0.7194 l -4.9072,3.2985 4.7989,2.9353 c 0.7208,0.4407 1.2518,0.6603 1.6003,0.6542 0.2132,-0.004 0.4022,-0.0613 0.5666,-0.1765 0.1647,-0.1114 0.2899,-0.2725 0.3833,-0.4756 0.0895,-0.2072 0.1303,-0.5138 0.1233,-0.9246 l 0.4222,-0.007 z m -14.7726,24.9669 -0.1576,0.3508 -3.8121,-2.1572 2.4781,-11.6591 0.4092,0.0869 -0.1207,0.5687 c -0.1354,0.6368 -0.0236,1.1359 0.3316,1.4967 0.2058,0.206 0.7392,0.3988 1.5958,0.5808 l 9.7185,2.0658 c 0.9399,0.1997 1.5492,0.2224 1.8286,0.0636 0.3871,-0.2185 0.641,-0.6123 0.7619,-1.181 l 0.1208,-0.5685 0.4133,0.0878 -1.4495,6.8189 -0.4131,-0.088 c 0.1777,-0.7981 0.2249,-1.3742 0.1378,-1.7293 -0.0868,-0.3554 -0.2373,-0.6171 -0.451,-0.7853 -0.21,-0.1675 -0.7655,-0.3491 -1.6601,-0.5392 l -9.4607,-2.0109 c -0.6142,-0.1306 -1.0477,-0.1593 -1.3038,-0.091 -0.1739,0.0542 -0.3168,0.1665 -0.432,0.3363 -0.1116,0.1703 -0.2719,0.7384 -0.4782,1.7087 l -0.2336,1.0991 c -0.2456,1.1561 -0.3346,1.985 -0.2632,2.4874 0.0716,0.5026 0.2844,0.9916 0.6344,1.4699 0.3506,0.4747 0.9545,1.0071 1.8056,1.5881 z m 4.3372,15.3843 -5.4206,-2.7619 -1.5358,3.014 c -0.3995,0.7839 -0.5477,1.3651 -0.4465,1.7469 0.131,0.5107 0.5781,0.982 1.3409,1.4228 l -0.1901,0.3731 -4.775,-2.4332 0.1899,-0.3729 c 0.7139,0.2464 1.1914,0.3678 1.4287,0.3712 0.2965,-0.001 0.5848,-0.1065 0.8603,-0.314 0.2754,-0.2075 0.5607,-0.597 0.8528,-1.1704 l 1.5358,-3.014 -4.523,-2.3046 c -0.6077,-0.3097 -0.9912,-0.4702 -1.1487,-0.4851 -0.1593,-0.0117 -0.3104,0.0287 -0.4584,0.1229 -0.1445,0.0961 -0.3146,0.3355 -0.5064,0.712 l -1.1856,2.3271 c -0.3942,0.7734 -0.6308,1.3659 -0.698,1.7709 -0.0725,0.4067 -0.0323,0.8489 0.1199,1.3353 0.2047,0.6308 0.6187,1.3809 1.2375,2.2485 l -0.2058,0.4039 -2.8371,-2.933 5.3866,-10.5719 0.3729,0.1899 -0.2481,0.4868 c -0.1637,0.3211 -0.2406,0.6689 -0.233,1.0381 -0.004,0.2722 0.0846,0.4997 0.2581,0.6882 0.1788,0.1867 0.6014,0.4501 1.2677,0.7896 l 8.9113,4.5405 c 0.87,0.4433 1.4493,0.6297 1.7427,0.5574 0.3924,-0.1044 0.7328,-0.4401 1.0213,-1.0062 l 0.2481,-0.4869 0.3763,0.1918 -5.3866,10.5719 -3.0812,-1.3785 0.2024,-0.3969 c 0.7936,0.226 1.3666,0.3223 1.7237,0.287 0.3574,-0.0355 0.6929,-0.182 1.0069,-0.4484 0.2375,-0.2181 0.5319,-0.6684 0.8785,-1.3483 l 1.9176,-3.7636 z m -17.4365,26.5221 -2.8373,-2.2408 0.2849,-0.3276 c 0.533,0.3554 0.9488,0.5682 1.253,0.6375 0.4828,0.1119 0.9316,0.0859 1.3436,-0.0693 0.4148,-0.1579 0.8294,-0.4753 1.2465,-0.9552 l 1.4236,-1.6376 -8.8788,-7.7182 c -0.7137,-0.6203 -1.2269,-0.9278 -1.5375,-0.9307 -0.4277,0.008 -0.8402,0.24 -1.2318,0.6903 l -0.3508,0.4035 -0.3157,-0.2745 4.2837,-4.9278 0.3157,0.2747 -0.3585,0.4122 c -0.4271,0.4913 -0.5804,0.969 -0.46,1.4331 0.072,0.2834 0.4343,0.7114 1.0836,1.2756 l 8.8787,7.7184 1.2152,-1.3978 c 0.4703,-0.5411 0.765,-0.9627 0.8842,-1.2597 0.1512,-0.3922 0.1618,-0.8298 0.0377,-1.3072 -0.1269,-0.4801 -0.4329,-0.9667 -0.9236,-1.4655 l 0.2822,-0.3246 2.606,2.5069 -8.2446,9.4843 z" />
  <path
     id="path34"
     style="fill:#ffffff;fill-rule:evenodd;stroke:#ffffff;stroke-width:0.21600001;stroke-linecap:butt;stroke-linejoin:miter;stroke-dasharray:none"
     d="m 64.873,186.9416 c 0.2568,-0.4522 0.4518,-0.9448 0.58,-1.476 0.1885,-0.7601 0.3597,-1.2586 0.5117,-1.4927 0.2153,-0.3317 0.4558,-0.5311 0.7203,-0.6042 0.2678,-0.0708 0.5147,-0.0308 0.7453,0.119 0.195,0.1265 0.3123,0.323 0.3466,0.5902 0.0346,0.2673 -0.0521,0.5575 -0.259,0.8759 -0.1858,0.286 -0.5279,0.6276 -1.0249,1.0301 -0.5024,0.4037 -0.9125,0.8074 -1.2301,1.2111 0.4945,0.007 0.9818,-0.0601 1.468,-0.197 0.7573,-0.2199 1.2817,-0.323 1.5677,-0.3081 0.2893,0.0168 0.5387,0.0955 0.7564,0.2368 0.2079,0.1353 0.337,0.3206 0.3872,0.5566 0.0523,0.2326 0.0119,0.4514 -0.1148,0.6461 -0.154,0.2373 -0.3929,0.3778 -0.7246,0.4258 -0.3263,0.047 -0.9699,-0.1075 -1.9287,-0.4668 -0.557,-0.2094 -1.0434,-0.3497 -1.4592,-0.421 0.2196,0.3876 0.5382,0.7792 0.9558,1.1751 0.6761,0.6378 1.066,1.1403 1.168,1.5026 0.1035,0.3674 0.0727,0.6708 -0.0876,0.9178 -0.1246,0.1918 -0.3017,0.3078 -0.5353,0.3546 -0.2339,0.047 -0.446,0.0109 -0.6346,-0.1116 -0.1916,-0.1244 -0.3587,-0.33 -0.5028,-0.6129 -0.1441,-0.2832 -0.2651,-0.7871 -0.3589,-1.5039 -0.0574,-0.4807 -0.189,-0.982 -0.402,-1.5084 -0.2232,0.3724 -0.4037,0.8142 -0.547,1.3266 -0.2579,0.8952 -0.4754,1.4792 -0.6527,1.7522 -0.1648,0.2534 -0.3788,0.4193 -0.6454,0.4956 -0.2668,0.0765 -0.4863,0.0587 -0.6553,-0.051 -0.2372,-0.1542 -0.3871,-0.3857 -0.4609,-0.6923 -0.0465,-0.2196 0.0277,-0.4764 0.2175,-0.7687 0.1962,-0.3023 0.5062,-0.6231 0.9312,-0.9571 0.4248,-0.334 0.7079,-0.5709 0.8504,-0.7046 0.1446,-0.1371 0.3363,-0.3546 0.5723,-0.6539 -0.5362,0.007 -1.0417,0.0671 -1.5163,0.1934 -0.8023,0.2182 -1.3655,0.3238 -1.6933,0.3096 -0.2313,-0.007 -0.4341,-0.0647 -0.6127,-0.1807 -0.2145,-0.1393 -0.3512,-0.3345 -0.409,-0.58 -0.0577,-0.2451 -0.0292,-0.4531 0.0869,-0.6318 0.1035,-0.1593 0.2762,-0.2828 0.52,-0.3738 0.2441,-0.0912 0.5319,-0.1076 0.8657,-0.0525 0.223,0.034 0.6784,0.1864 1.3685,0.4545 0.4458,0.1739 0.9108,0.3049 1.3879,0.3884 -0.2326,-0.396 -0.5558,-0.7951 -0.9691,-1.1975 -0.672,-0.6723 -1.0593,-1.1361 -1.1548,-1.3877 -0.1509,-0.3937 -0.1271,-0.7434 0.0648,-1.0389 0.1119,-0.1722 0.2847,-0.2819 0.5205,-0.3321 0.236,-0.05 0.4481,-0.0138 0.6399,0.1106 0.2079,0.1352 0.3867,0.3435 0.5375,0.6309 0.1473,0.2851 0.2649,0.745 0.3507,1.3736 0.0893,0.631 0.2409,1.1729 0.4582,1.6281 z m 21.0946,7.5447 4.1062,-0.7254 0.3614,0.1038 -3.5836,12.4969 c -0.237,0.827 -0.352,1.3543 -0.3437,1.5786 0.0129,0.2213 0.1135,0.4192 0.2974,0.5929 0.189,0.1712 0.614,0.3616 1.28,0.5689 l -0.1152,0.4021 -5.5688,-1.5969 0.1154,-0.402 c 0.7046,0.1858 1.1723,0.2553 1.4083,0.206 0.2311,-0.0465 0.4133,-0.1475 0.5464,-0.3027 0.1295,-0.1563 0.3231,-0.6774 0.5774,-1.5639 l 2.291,-7.9897 c 0.3086,-1.0766 0.4692,-1.7764 0.4857,-2.1021 0.0154,-0.2496 -0.0287,-0.4476 -0.1318,-0.5942 -0.1033,-0.1463 -0.2472,-0.2484 -0.4373,-0.3028 -0.2681,-0.0769 -0.6763,-0.0729 -1.2222,0.0164 l -0.0666,-0.3859 z m 11.7191,17.2037 0.0364,-0.4169 c 0.9817,0.0704 1.9165,-0.0774 2.7971,-0.4477 0.8838,-0.3661 1.7697,-1.0664 2.6535,-2.0978 0.8837,-1.0313 1.5375,-2.1916 1.9618,-3.4847 -1.2513,0.6565 -2.3543,0.9453 -3.3116,0.8615 -1.077,-0.0942 -1.967,-0.5923 -2.6622,-1.4933 -0.6954,-0.901 -0.9847,-2.0388 -0.8638,-3.4207 0.1176,-1.3434 0.6078,-2.5025 1.468,-3.4853 1.0379,-1.1925 2.3057,-1.7236 3.7996,-1.5928 1.2586,0.1099 2.2899,0.7254 3.0944,1.846 0.9911,1.3859 1.4001,3.0242 1.2347,4.9157 -0.149,1.7024 -0.7052,3.2565 -1.6719,4.6578 -0.9664,1.4012 -2.2393,2.5229 -3.8142,3.3616 -1.2862,0.6965 -2.6413,0.9788 -4.0772,0.8531 L 97.6867,211.69 Z m 7.7037,-7.2692 c 0.2209,-0.9684 0.3589,-1.746 0.4101,-2.3328 0.0642,-0.7335 0.006,-1.532 -0.1669,-2.403 -0.1766,-0.8712 -0.4713,-1.5505 -0.8871,-2.042 -0.4159,-0.4952 -0.9134,-0.7643 -1.4965,-0.8153 -0.6716,-0.0587 -1.2847,0.1909 -1.843,0.7489 -0.5583,0.5579 -0.8881,1.4355 -0.992,2.6244 -0.1393,1.5904 0.0876,2.8664 0.6807,3.821 0.4299,0.6909 1.0075,1.0683 1.7219,1.1308 0.3471,0.0304 0.7672,-0.0147 1.2566,-0.139 0.4894,-0.1244 0.927,-0.3234 1.3162,-0.593 z m 18.8243,1.1776 0.1406,1.6058 -2.0576,0.18 0.3542,4.0494 -1.8681,0.1635 -0.3544,-4.0494 -6.4891,0.5677 -0.1267,-1.4476 6.2259,-10.7788 1.2431,-0.1086 0.8746,9.9981 2.0575,-0.1801 z m -3.9256,0.3436 -0.6661,-7.6125 -4.7154,8.0832 5.3815,-0.4707 z m 12.9976,-4.2884 c -1.445,-0.6254 -2.4223,-1.1797 -2.9279,-1.6637 -0.5017,-0.4848 -0.8463,-1.0392 -1.0258,-1.6649 -0.2755,-0.9612 -0.1401,-1.8949 0.4014,-2.8038 0.5426,-0.9054 1.4293,-1.5387 2.6586,-1.8912 1.192,-0.3419 2.2459,-0.2932 3.1581,0.1464 0.9159,0.4391 1.4886,1.073 1.7268,1.9034 0.1581,0.5515 0.1267,1.1732 -0.1036,1.8599 -0.2266,0.6858 -0.8517,1.5989 -1.8726,2.734 1.5646,0.6197 2.6331,1.1557 3.2139,1.6059 0.7637,0.5832 1.2637,1.2865 1.4997,2.1097 0.298,1.0391 0.1586,2.0428 -0.4233,3.0078 -0.5821,0.965 -1.5156,1.6317 -2.8042,2.0014 -1.4044,0.4027 -2.6256,0.277 -3.6635,-0.3765 -0.8289,-0.5285 -1.363,-1.2097 -1.6021,-2.0441 -0.188,-0.6555 -0.1539,-1.3668 0.1046,-2.1384 0.2545,-0.7702 0.8068,-1.6986 1.6599,-2.7859 z m 1.3792,-1.6572 c 0.6501,-1.037 1.0228,-1.817 1.1274,-2.3388 0.1005,-0.5206 0.0686,-1.0676 -0.0968,-1.645 -0.2189,-0.7637 -0.6022,-1.2988 -1.1546,-1.6081 -0.5572,-0.3117 -1.2037,-0.3602 -1.945,-0.1476 -0.7414,0.2126 -1.2826,0.6017 -1.6256,1.1636 -0.3427,0.5617 -0.433,1.1318 -0.2687,1.7056 0.1091,0.38 0.3138,0.7284 0.6161,1.0528 0.2991,0.3253 0.6774,0.604 1.1332,0.8441 l 2.214,0.9734 z m -0.7467,1.9234 c -0.4569,0.6833 -0.7449,1.3666 -0.8631,2.0495 -0.1189,0.683 -0.0772,1.3765 0.1226,2.073 0.2692,0.9386 0.7382,1.6185 1.4136,2.0337 0.6752,0.415 1.4083,0.5111 2.2017,0.2836 0.786,-0.2253 1.3523,-0.6254 1.6971,-1.2084 0.3462,-0.5789 0.4269,-1.1822 0.2454,-1.8156 -0.1507,-0.5253 -0.4229,-0.955 -0.8172,-1.2896 -0.7388,-0.6225 -2.0712,-1.3328 -4.0001,-2.1262 z m 22.8992,-14.5757 c -0.3087,-0.4186 -0.6792,-0.7973 -1.1127,-1.1302 -0.6174,-0.4815 -1.0035,-0.8408 -1.1553,-1.0747 -0.2154,-0.3316 -0.2998,-0.6325 -0.2589,-0.9037 0.044,-0.2737 0.1811,-0.4829 0.4118,-0.6325 0.1949,-0.1267 0.422,-0.1539 0.6801,-0.0768 0.2581,0.0772 0.4879,0.2745 0.6947,0.593 0.1859,0.2859 0.3587,0.7375 0.5243,1.3553 0.1643,0.6231 0.3665,1.162 0.6059,1.6164 0.2077,-0.449 0.3446,-0.9214 0.4171,-1.4213 0.1072,-0.7813 0.2265,-1.3021 0.3563,-1.5575 0.1331,-0.2574 0.3064,-0.4532 0.5241,-0.5946 0.2081,-0.135 0.4299,-0.1775 0.6659,-0.1273 0.2336,0.0469 0.4171,0.1726 0.5436,0.3675 0.1541,0.2373 0.1851,0.5128 0.0942,0.8353 -0.0898,0.317 -0.4926,0.8421 -1.211,1.572 -0.4178,0.4237 -0.7437,0.8111 -0.978,1.1619 0.4433,-0.043 0.9308,-0.1748 1.4623,-0.3953 0.8576,-0.3582 1.4752,-0.5098 1.8477,-0.456 0.3776,0.0551 0.6425,0.2067 0.8028,0.4535 0.1245,0.192 0.1586,0.4007 0.1063,0.6333 -0.0523,0.2328 -0.1716,0.4118 -0.3602,0.5343 -0.1915,0.1246 -0.4473,0.1934 -0.7645,0.21 -0.3172,0.0166 -0.8266,-0.0778 -1.5196,-0.2838 -0.4627,-0.1433 -0.9742,-0.2266 -1.5416,-0.2464 0.2494,0.3555 0.5798,0.7003 0.9894,1.0394 0.7129,0.5997 1.1579,1.036 1.3352,1.309 0.1647,0.2536 0.2291,0.5166 0.1904,0.7912 -0.0389,0.2749 -0.1443,0.468 -0.3133,0.5779 -0.2373,0.1541 -0.5096,0.1969 -0.8198,0.1395 -0.2196,-0.0468 -0.4239,-0.219 -0.614,-0.5116 -0.1962,-0.3021 -0.3631,-0.7158 -0.4953,-1.2398 -0.1325,-0.5241 -0.2337,-0.8789 -0.2979,-1.0634 -0.0665,-0.1878 -0.1871,-0.4516 -0.3646,-0.789 -0.2113,0.493 -0.3623,0.979 -0.4401,1.464 -0.1269,0.8216 -0.2596,1.3791 -0.4058,1.6729 -0.1004,0.2083 -0.2356,0.3701 -0.4144,0.4862 -0.2145,0.1393 -0.4484,0.1848 -0.696,0.1378 -0.2477,-0.0472 -0.4259,-0.1578 -0.5422,-0.3366 -0.1033,-0.1592 -0.1458,-0.3671 -0.1296,-0.6269 0.0159,-0.26 0.118,-0.5298 0.3042,-0.8124 0.1216,-0.1896 0.446,-0.5436 0.9716,-1.0651 0.3403,-0.3367 0.649,-0.7079 0.9192,-1.11 -0.4562,0.0515 -0.9522,0.1844 -1.4879,0.398 -0.8876,0.3408 -1.4689,0.5058 -1.7374,0.4909 -0.4211,-0.0223 -0.7309,-0.1862 -0.9229,-0.4819 -0.1118,-0.1723 -0.1416,-0.3746 -0.0916,-0.6106 0.0502,-0.2358 0.1696,-0.415 0.3612,-0.5394 0.2081,-0.1352 0.4711,-0.2137 0.7951,-0.2345 0.3204,-0.0187 0.7883,0.061 1.3976,0.2381 0.6125,0.1752 1.1695,0.2571 1.6736,0.2439 z" />
</svg>
